<?xml version="1.0" encoding="UTF-8"?>
<svg id="Layer_2" data-name="Layer 2" xmlns="http://www.w3.org/2000/svg" viewBox="0 0 64 64">
  <defs>
    <style>
      .cls-1 {
        fill: #fd6c01;
      }

      .cls-2 {
        fill: #fff;
      }
    </style>
  </defs>
  <g id="Layer_2-2" data-name="Layer 2">
    <g>
      <rect class="cls-2" x="4.3" y="5.15" width="55.76" height="55.76"/>
      <path class="cls-1" d="M45.08,12.38c-.64,5.38-1.15,5.9-6.54,6.53,5.39.64,5.9,1.15,6.54,6.53.64-5.38,1.15-5.9,6.54-6.53-5.39-.64-5.9-1.15-6.54-6.53Z"/>
      <path class="cls-1" d="M0,2.51v58.98c0,1.39,1.12,2.51,2.51,2.51h58.98c1.39,0,2.51-1.12,2.51-2.51V2.51c0-1.39-1.12-2.51-2.51-2.51H2.51C1.12,0,0,1.12,0,2.51ZM30.73,55.92c0,.53-.43.97-.97.97h-6c-.53,0-.97-.43-.97-.97v-14.7h-7.75v14.7c0,.53-.43.97-.97.97h-6c-.53,0-.97-.43-.97-.97v-21.66c0-.53.43-.97.97-.97h21.69c.53,0,.97.43.97.97v21.66ZM30.73,29.74c0,.53-.43.97-.97.97H8.08c-.53,0-.97-.43-.97-.97V8.08c0-.53.43-.97.97-.97h6c.53,0,.97.44.97.97v14.7h14.72c.53,0,.97.43.97.97v5.99ZM56.64,56.49c-.2.27-.53.4-.86.4h-21.4c-.33,0-.66-.14-.86-.4-.24-.31-.27-.72-.1-1.07l10.73-21.53c.15-.29.42-.52.74-.58.46-.08.89.14,1.09.55l10.75,21.57c.17.35.14.75-.1,1.07ZM56.89,18.91c0,6.51-5.3,11.8-11.81,11.8s-11.81-5.29-11.81-11.8v-10.83c0-.53.43-.97.97-.97h21.69c.53,0,.97.43.97.97v10.83Z"/>
    </g>
  </g>
</svg>